<mxfile host="Chrome" modified="2023-06-06T15:48:37.252Z" agent="Mozilla/5.0 (Macintosh; Intel Mac OS X 10_15_7) AppleWebKit/537.36 (KHTML, like Gecko) Chrome/101.0.0.0 Safari/537.36" version="21.2.7" etag="HuuX0wqbcozUE_rP_cIz" type="device">
  <diagram id="Mdr9PD0-K_zhv9AR7Q6I" name="第 1 页">
    <mxGraphModel dx="1434" dy="854" grid="1" gridSize="10" guides="1" tooltips="1" connect="1" arrows="1" fold="1" page="1" pageScale="1" pageWidth="827" pageHeight="1169" math="0" shadow="0">
      <root>
        <mxCell id="0" />
        <mxCell id="1" parent="0" />
        <mxCell id="6B_QpVYjzTcGDpXKCOqe-1" value="&lt;p style=&quot;margin:0px;margin-top:4px;text-align:center;&quot;&gt;&lt;i&gt;&amp;lt;&amp;lt;Interface&amp;gt;&amp;gt;&lt;/i&gt;&lt;br&gt;&lt;b&gt;OSS&lt;/b&gt;&lt;/p&gt;&lt;p style=&quot;margin:0px;margin-left:4px;&quot;&gt;&lt;br&gt;&lt;/p&gt;&lt;hr size=&quot;1&quot;&gt;&lt;p style=&quot;margin:0px;margin-left:4px;&quot;&gt;+ SyncUpload(string) error&lt;/p&gt;&lt;p style=&quot;margin:0px;margin-left:4px;&quot;&gt;+ AsyncUpload(string,string) error&lt;/p&gt;" style="verticalAlign=top;align=left;overflow=fill;fontSize=12;fontFamily=Helvetica;html=1;whiteSpace=wrap;" vertex="1" parent="1">
          <mxGeometry x="660" y="110" width="190" height="140" as="geometry" />
        </mxCell>
        <mxCell id="6B_QpVYjzTcGDpXKCOqe-4" style="edgeStyle=orthogonalEdgeStyle;rounded=0;orthogonalLoop=1;jettySize=auto;html=1;exitX=0.5;exitY=0;exitDx=0;exitDy=0;endArrow=diamondThin;endFill=0;endSize=14;" edge="1" parent="1" source="6B_QpVYjzTcGDpXKCOqe-2">
          <mxGeometry relative="1" as="geometry">
            <mxPoint x="575" y="295" as="sourcePoint" />
            <mxPoint x="755" y="250" as="targetPoint" />
          </mxGeometry>
        </mxCell>
        <mxCell id="6B_QpVYjzTcGDpXKCOqe-2" value="&lt;p style=&quot;margin:0px;margin-top:4px;text-align:center;&quot;&gt;&lt;i&gt;&amp;lt;&amp;lt;Interface&amp;gt;&amp;gt;&lt;/i&gt;&lt;br&gt;&lt;b&gt;OSS&lt;/b&gt;&lt;/p&gt;&lt;p style=&quot;margin:0px;margin-left:4px;&quot;&gt;&lt;br&gt;&lt;/p&gt;&lt;hr size=&quot;1&quot;&gt;&lt;p style=&quot;margin:0px;margin-left:4px;&quot;&gt;+ SyncUpload(string) error&lt;/p&gt;&lt;p style=&quot;margin:0px;margin-left:4px;&quot;&gt;+ AsyncUpload(string,string) error&lt;/p&gt;" style="verticalAlign=top;align=left;overflow=fill;fontSize=12;fontFamily=Helvetica;html=1;whiteSpace=wrap;" vertex="1" parent="1">
          <mxGeometry x="480" y="310" width="190" height="140" as="geometry" />
        </mxCell>
        <mxCell id="6B_QpVYjzTcGDpXKCOqe-5" style="edgeStyle=orthogonalEdgeStyle;rounded=0;orthogonalLoop=1;jettySize=auto;html=1;exitX=0.5;exitY=0;exitDx=0;exitDy=0;endArrow=diamondThin;endFill=0;endSize=14;" edge="1" parent="1">
          <mxGeometry relative="1" as="geometry">
            <mxPoint x="755" y="250" as="targetPoint" />
            <mxPoint x="850" y="310" as="sourcePoint" />
            <Array as="points">
              <mxPoint x="850" y="290" />
              <mxPoint x="756" y="290" />
            </Array>
          </mxGeometry>
        </mxCell>
        <mxCell id="6B_QpVYjzTcGDpXKCOqe-3" value="&lt;p style=&quot;margin:0px;margin-top:4px;text-align:center;&quot;&gt;&lt;i&gt;&amp;lt;&amp;lt;Interface&amp;gt;&amp;gt;&lt;/i&gt;&lt;br&gt;&lt;b&gt;OSS&lt;/b&gt;&lt;/p&gt;&lt;p style=&quot;margin:0px;margin-left:4px;&quot;&gt;&lt;br&gt;&lt;/p&gt;&lt;hr size=&quot;1&quot;&gt;&lt;p style=&quot;margin:0px;margin-left:4px;&quot;&gt;+ SyncUpload(string) error&lt;/p&gt;&lt;p style=&quot;margin:0px;margin-left:4px;&quot;&gt;+ AsyncUpload(string,string) error&lt;/p&gt;" style="verticalAlign=top;align=left;overflow=fill;fontSize=12;fontFamily=Helvetica;html=1;whiteSpace=wrap;" vertex="1" parent="1">
          <mxGeometry x="760" y="310" width="190" height="140" as="geometry" />
        </mxCell>
        <mxCell id="6B_QpVYjzTcGDpXKCOqe-6" value="AliOss" style="swimlane;fontStyle=1;align=center;verticalAlign=top;childLayout=stackLayout;horizontal=1;startSize=26;horizontalStack=0;resizeParent=1;resizeParentMax=0;resizeLast=0;collapsible=1;marginBottom=0;whiteSpace=wrap;html=1;" vertex="1" parent="1">
          <mxGeometry x="230" y="340" width="160" height="50" as="geometry" />
        </mxCell>
        <mxCell id="6B_QpVYjzTcGDpXKCOqe-9" value="+SyncUpload(string) error" style="text;strokeColor=none;fillColor=none;align=left;verticalAlign=top;spacingLeft=4;spacingRight=4;overflow=hidden;rotatable=0;points=[[0,0.5,0,0,0],[0.5,1,0,0,0],[1,0.5,0,0,0]];portConstraint=eastwest;whiteSpace=wrap;html=1;" vertex="1" parent="6B_QpVYjzTcGDpXKCOqe-6">
          <mxGeometry y="26" width="160" height="24" as="geometry" />
        </mxCell>
        <mxCell id="6B_QpVYjzTcGDpXKCOqe-10" value="Minio" style="swimlane;fontStyle=1;align=center;verticalAlign=top;childLayout=stackLayout;horizontal=1;startSize=26;horizontalStack=0;resizeParent=1;resizeParentMax=0;resizeLast=0;collapsible=1;marginBottom=0;whiteSpace=wrap;html=1;" vertex="1" parent="1">
          <mxGeometry x="240" y="200" width="190" height="90" as="geometry" />
        </mxCell>
        <mxCell id="6B_QpVYjzTcGDpXKCOqe-11" value="+SyncUpload(string) error&lt;br&gt;+AsyncUpload(string, string) error" style="text;strokeColor=none;fillColor=none;align=left;verticalAlign=top;spacingLeft=4;spacingRight=4;overflow=hidden;rotatable=0;points=[[0,0.5],[1,0.5]];portConstraint=eastwest;whiteSpace=wrap;html=1;" vertex="1" parent="6B_QpVYjzTcGDpXKCOqe-10">
          <mxGeometry y="26" width="190" height="64" as="geometry" />
        </mxCell>
        <mxCell id="6B_QpVYjzTcGDpXKCOqe-12" style="edgeStyle=orthogonalEdgeStyle;rounded=0;orthogonalLoop=1;jettySize=auto;html=1;exitX=1;exitY=0.5;exitDx=0;exitDy=0;entryX=0;entryY=0.5;entryDx=0;entryDy=0;endArrow=block;endFill=0;dashed=1;endSize=14;" edge="1" parent="1" source="6B_QpVYjzTcGDpXKCOqe-11" target="6B_QpVYjzTcGDpXKCOqe-1">
          <mxGeometry relative="1" as="geometry" />
        </mxCell>
        <mxCell id="6B_QpVYjzTcGDpXKCOqe-15" style="edgeStyle=orthogonalEdgeStyle;rounded=0;orthogonalLoop=1;jettySize=auto;html=1;exitX=1;exitY=0.5;exitDx=0;exitDy=0;entryX=0;entryY=0.5;entryDx=0;entryDy=0;endArrow=block;endFill=0;dashed=1;endSize=14;" edge="1" parent="1" source="6B_QpVYjzTcGDpXKCOqe-9" target="6B_QpVYjzTcGDpXKCOqe-2">
          <mxGeometry relative="1" as="geometry" />
        </mxCell>
        <mxCell id="6B_QpVYjzTcGDpXKCOqe-18" value="Adapter" style="swimlane;fontStyle=1;align=center;verticalAlign=top;childLayout=stackLayout;horizontal=1;startSize=30;horizontalStack=0;resizeParent=1;resizeParentMax=0;resizeLast=0;collapsible=1;marginBottom=0;whiteSpace=wrap;html=1;" vertex="1" parent="1">
          <mxGeometry x="90" y="30" width="240" height="110" as="geometry" />
        </mxCell>
        <mxCell id="6B_QpVYjzTcGDpXKCOqe-19" value="+ field: type" style="text;strokeColor=none;fillColor=none;align=left;verticalAlign=top;spacingLeft=4;spacingRight=4;overflow=hidden;rotatable=0;points=[[0,0.5],[1,0.5]];portConstraint=eastwest;whiteSpace=wrap;html=1;" vertex="1" parent="6B_QpVYjzTcGDpXKCOqe-18">
          <mxGeometry y="30" width="240" height="26" as="geometry" />
        </mxCell>
        <mxCell id="6B_QpVYjzTcGDpXKCOqe-20" value="" style="line;strokeWidth=1;fillColor=none;align=left;verticalAlign=middle;spacingTop=-1;spacingLeft=3;spacingRight=3;rotatable=0;labelPosition=right;points=[];portConstraint=eastwest;strokeColor=inherit;" vertex="1" parent="6B_QpVYjzTcGDpXKCOqe-18">
          <mxGeometry y="56" width="240" height="8" as="geometry" />
        </mxCell>
        <mxCell id="6B_QpVYjzTcGDpXKCOqe-21" value="+SyncUpload(string) error&lt;br style=&quot;border-color: var(--border-color);&quot;&gt;+AsyncUpload(string, string) error" style="text;strokeColor=none;fillColor=none;align=left;verticalAlign=top;spacingLeft=4;spacingRight=4;overflow=hidden;rotatable=0;points=[[0,0.5],[1,0.5]];portConstraint=eastwest;whiteSpace=wrap;html=1;" vertex="1" parent="6B_QpVYjzTcGDpXKCOqe-18">
          <mxGeometry y="64" width="240" height="46" as="geometry" />
        </mxCell>
        <mxCell id="6B_QpVYjzTcGDpXKCOqe-22" style="edgeStyle=orthogonalEdgeStyle;rounded=0;orthogonalLoop=1;jettySize=auto;html=1;exitX=0.5;exitY=1;exitDx=0;exitDy=0;exitPerimeter=0;endArrow=diamondThin;endFill=0;endSize=14;" edge="1" parent="1" source="6B_QpVYjzTcGDpXKCOqe-9" target="6B_QpVYjzTcGDpXKCOqe-18">
          <mxGeometry relative="1" as="geometry" />
        </mxCell>
        <mxCell id="6B_QpVYjzTcGDpXKCOqe-23" style="edgeStyle=orthogonalEdgeStyle;rounded=0;orthogonalLoop=1;jettySize=auto;html=1;exitX=1;exitY=0.5;exitDx=0;exitDy=0;entryX=0;entryY=0.5;entryDx=0;entryDy=0;endArrow=block;endFill=0;dashed=1;endSize=14;" edge="1" parent="1" source="6B_QpVYjzTcGDpXKCOqe-19" target="6B_QpVYjzTcGDpXKCOqe-1">
          <mxGeometry relative="1" as="geometry" />
        </mxCell>
      </root>
    </mxGraphModel>
  </diagram>
</mxfile>
